<svg version="1.1" id="Layer_1" xmlns="http://www.w3.org/2000/svg" xmlns:xlink="http://www.w3.org/1999/xlink" x="0px" y="0px"
	 width="100%" viewBox="0 0 100 100" enable-background="new 0 0 100 100" xml:space="preserve">
<path fill="#0B0B0B" opacity="1.000000" stroke="none" 
	d="
M58.000000,101.000000 
	C53.310745,101.000000 48.621487,101.000000 43.265678,100.671371 
	C20.951628,95.647514 7.362342,82.623390 1.983606,61.087193 
	C1.800797,60.355232 1.334279,59.694130 1.000000,59.000000 
	C1.000000,53.977909 1.000000,48.955814 1.329543,43.267746 
	C5.302267,24.350891 15.741795,11.612689 32.854122,4.395873 
	C36.130699,3.014035 39.612747,2.119404 43.000000,1.000000 
	C47.689255,1.000000 52.378513,1.000000 57.754463,1.324176 
	C68.781662,3.000392 77.560890,7.562310 85.202736,14.544065 
	C93.932594,22.519850 98.335754,32.786499 101.000000,44.000000 
	C101.000000,48.689255 101.000000,53.378513 100.670334,58.733044 
	C96.358452,78.833504 85.016739,91.912888 66.359741,98.607857 
	C63.637558,99.584694 60.789703,100.211327 58.000000,101.000000 
M87.177704,24.363760 
	C86.459816,23.447186 85.783859,22.493885 85.017822,21.619495 
	C71.562080,6.260610 50.031239,1.666032 31.864759,10.263685 
	C13.985980,18.725178 3.283598,38.666107 6.530800,57.466511 
	C10.169888,78.535828 26.026293,94.037872 46.729225,95.737267 
	C65.057838,97.241768 79.782707,90.022591 89.311653,74.241768 
	C99.287086,57.721512 98.235687,41.021011 87.177704,24.363760 
z"/>
<path fill="#FBFBFB" opacity="1.000000" stroke="none" 
	d="
M101.000000,43.531342 
	C98.335754,32.786499 93.932594,22.519850 85.202736,14.544065 
	C77.560890,7.562310 68.781662,3.000392 58.220581,1.324176 
	C72.260025,1.000000 86.520042,1.000000 101.000000,1.000000 
	C101.000000,15.020128 101.000000,29.041407 101.000000,43.531342 
z"/>
<path fill="#FCFCFC" opacity="1.000000" stroke="none" 
	d="
M58.468658,101.000000 
	C60.789703,100.211327 63.637558,99.584694 66.359741,98.607857 
	C85.016739,91.912888 96.358452,78.833504 100.670334,59.199158 
	C101.000000,72.927544 101.000000,86.855095 101.000000,101.000000 
	C86.979851,101.000000 72.958588,101.000000 58.468658,101.000000 
z"/>
<path fill="#FCFCFC" opacity="1.000000" stroke="none" 
	d="
M1.000000,59.468658 
	C1.334279,59.694130 1.800797,60.355232 1.983606,61.087193 
	C7.362342,82.623390 20.951628,95.647514 42.799564,100.671371 
	C29.073322,101.000000 15.146646,101.000000 1.000000,101.000000 
	C1.000000,87.313225 1.000000,73.625267 1.000000,59.468658 
z"/>
<path fill="#FCFCFC" opacity="1.000000" stroke="none" 
	d="
M42.531342,1.000000 
	C39.612747,2.119404 36.130699,3.014035 32.854122,4.395873 
	C15.741795,11.612689 5.302267,24.350891 1.329543,42.800884 
	C1.000000,29.073322 1.000000,15.146646 1.000000,1.000000 
	C14.686776,1.000000 28.374729,1.000000 42.531342,1.000000 
z"/>
<path fill="#F4F4F4" opacity="1.000000" stroke="none" 
	d="
M87.404488,24.642645 
	C98.235687,41.021011 99.287086,57.721512 89.311653,74.241768 
	C79.782707,90.022591 65.057838,97.241768 46.729225,95.737267 
	C26.026293,94.037872 10.169888,78.535828 6.530800,57.466511 
	C3.283598,38.666107 13.985980,18.725178 31.864759,10.263685 
	C50.031239,1.666032 71.562080,6.260610 85.017822,21.619495 
	C85.783859,22.493885 86.459816,23.447186 87.404488,24.642645 
M39.819435,44.635689 
	C30.940435,44.214371 29.825649,43.128071 32.086300,34.474205 
	C33.367207,29.570856 35.979279,25.010525 38.047241,20.320141 
	C38.742508,18.743196 39.608852,17.241680 40.750214,15.017344 
	C28.401354,20.301096 17.644909,25.891218 13.108611,38.705345 
	C8.583463,51.487968 11.953684,62.897686 18.805420,74.556015 
	C19.234005,68.316185 19.606606,62.891449 19.986824,57.355801 
	C21.179756,57.742249 21.897852,57.974876 22.505510,58.171722 
	C22.761509,56.250481 23.011204,54.376537 23.451487,51.072262 
	C25.405609,53.249084 26.491068,54.323872 27.415192,55.522987 
	C28.480728,56.905586 29.403849,58.397938 30.356216,59.794819 
	C40.668198,54.378700 45.431122,55.672039 46.403816,63.371986 
	C43.998444,62.714249 41.414543,62.007694 38.830647,61.301140 
	C38.830647,63.415310 38.830647,65.529480 38.830647,67.606873 
	C37.351738,67.439728 35.586311,67.240204 33.820881,67.040672 
	C33.688068,67.621002 33.555256,68.201324 33.422443,68.781654 
	C36.758354,69.912285 40.094261,71.042915 43.826241,72.307785 
	C43.491543,70.491493 43.282158,69.355247 43.037754,68.028961 
	C49.520061,69.693741 49.978035,71.539803 46.110249,77.470428 
	C42.709564,76.060608 39.491615,74.177841 36.029270,73.436455 
	C32.108490,72.596909 28.560989,74.188782 27.486740,78.434799 
	C26.424818,82.632103 28.701937,85.442558 32.517353,86.996941 
	C33.727592,87.489990 35.212337,88.112411 36.360142,87.826706 
	C44.527561,85.793648 52.575207,87.411896 60.666817,88.240623 
	C62.293301,88.407211 64.013161,88.165306 65.630455,87.827133 
	C71.232262,86.655800 75.137070,82.665710 74.693321,78.736847 
	C74.235603,74.684288 70.856773,72.933983 64.002213,73.196640 
	C63.836166,73.203011 63.669361,73.189835 62.939030,72.952316 
	C62.633770,72.690277 62.328510,72.428230 62.601166,71.718384 
	C64.990349,70.373878 67.379539,69.029373 69.768723,67.684868 
	C69.509186,67.229073 69.249649,66.773270 68.990112,66.317474 
	C67.618454,66.818413 66.246796,67.319351 65.256081,67.681175 
	C65.256081,65.397606 65.256081,63.386738 65.256081,61.375874 
	C62.464611,62.211060 59.673138,63.046249 56.867970,63.885536 
	C55.074577,58.239269 56.268402,56.347355 62.252316,56.889450 
	C65.433800,57.177670 68.534660,58.355797 71.805916,59.165398 
	C73.446945,56.986382 75.340347,54.472256 78.122665,50.777790 
	C78.821815,54.317188 79.170517,57.748077 79.549774,57.751461 
	C84.879738,57.798977 81.375000,61.446461 81.923660,63.308353 
	C82.115280,63.958637 81.346222,65.290260 81.599098,65.464546 
	C85.435936,68.108986 82.494644,70.673042 81.566490,73.207100 
	C81.134872,74.385475 80.435616,75.465820 79.857674,76.590607 
	C80.320183,76.752296 80.782684,76.913994 81.245193,77.075684 
	C89.120560,65.540634 93.826958,53.213154 88.815186,38.998375 
	C84.359642,26.361181 74.338280,20.008986 61.180077,15.713141 
	C63.168591,19.145987 64.949684,21.435492 65.901672,24.029301 
	C67.824364,29.267927 69.463364,34.630074 70.819664,40.041462 
	C71.104164,41.176556 69.854805,43.760578 68.984306,43.923370 
	C66.247276,44.435230 63.354046,44.111839 59.571209,44.111839 
	C65.166199,40.386017 66.485313,33.563953 62.419750,31.297115 
	C61.665062,34.063263 61.247116,36.875580 60.085949,39.337326 
	C59.459492,40.665447 57.561428,41.393764 56.237064,42.392693 
	C55.413315,41.130932 53.901661,39.877159 53.886894,38.605995 
	C53.828197,33.552765 54.236668,28.494102 54.472088,23.437452 
	C54.886688,23.020168 55.301289,22.602882 55.715893,22.185598 
	C56.893356,24.182859 58.070820,26.180122 59.248287,28.177385 
	C59.645248,27.844519 60.042210,27.511654 60.439171,27.178787 
	C59.553959,25.713882 58.996376,23.792620 57.718239,22.875019 
	C54.654530,20.675516 52.906116,18.301285 53.569202,14.262546 
	C53.726551,13.304177 51.849182,12.011745 50.907745,10.872977 
	C49.979660,12.033172 48.793949,13.072156 48.178814,14.379591 
	C47.011650,16.860332 46.415760,19.627979 45.112640,22.020491 
	C44.185226,23.723213 42.488346,25.006830 41.134872,26.477488 
	C41.361706,26.736380 41.588539,26.995272 41.815372,27.254164 
	C43.666641,25.863403 45.517914,24.472645 47.351288,23.095331 
	C47.584061,28.105631 47.573666,32.579243 48.069958,36.995918 
	C48.431122,40.210022 47.496868,42.112644 43.895226,42.254116 
	C42.096054,38.560726 40.296883,34.867336 37.807007,29.756050 
	C36.791740,32.128124 35.342945,33.856339 35.729076,34.915794 
	C36.980537,38.349548 38.905048,41.538006 39.819435,44.635689 
z"/>
<path fill="#090909" opacity="1.000000" stroke="none" 
	d="
M44.330193,42.831680 
	C47.496868,42.112644 48.431122,40.210022 48.069958,36.995918 
	C47.573666,32.579243 47.584061,28.105631 47.351288,23.095331 
	C45.517914,24.472645 43.666641,25.863403 41.815372,27.254164 
	C41.588539,26.995272 41.361706,26.736380 41.134872,26.477488 
	C42.488346,25.006830 44.185226,23.723213 45.112640,22.020491 
	C46.415760,19.627979 47.011650,16.860332 48.178814,14.379591 
	C48.793949,13.072156 49.979660,12.033172 50.907745,10.872977 
	C51.849182,12.011745 53.726551,13.304177 53.569202,14.262546 
	C52.906116,18.301285 54.654530,20.675516 57.718239,22.875019 
	C58.996376,23.792620 59.553959,25.713882 60.439171,27.178787 
	C60.042210,27.511654 59.645248,27.844519 59.248287,28.177385 
	C58.070820,26.180122 56.893356,24.182859 55.715893,22.185598 
	C55.301289,22.602882 54.886688,23.020168 54.472088,23.437452 
	C54.236668,28.494102 53.828197,33.552765 53.886894,38.605995 
	C53.901661,39.877159 55.413315,41.130932 56.237064,42.392693 
	C57.561428,41.393764 59.459492,40.665447 60.085949,39.337326 
	C61.247116,36.875580 61.665062,34.063263 62.419750,31.297115 
	C66.485313,33.563953 65.166199,40.386017 59.571209,44.111839 
	C63.354046,44.111839 66.247276,44.435230 68.984306,43.923370 
	C69.854805,43.760578 71.104164,41.176556 70.819664,40.041462 
	C69.463364,34.630074 67.824364,29.267927 65.901672,24.029301 
	C64.949684,21.435492 63.168591,19.145987 61.180077,15.713141 
	C74.338280,20.008986 84.359642,26.361181 88.815186,38.998375 
	C93.826958,53.213154 89.120560,65.540634 81.245193,77.075684 
	C80.782684,76.913994 80.320183,76.752296 79.857674,76.590607 
	C80.435616,75.465820 81.134872,74.385475 81.566490,73.207100 
	C82.494644,70.673042 85.435936,68.108986 81.599098,65.464546 
	C81.346222,65.290260 82.115280,63.958637 81.923660,63.308353 
	C81.375000,61.446461 84.879738,57.798977 79.549774,57.751461 
	C79.170517,57.748077 78.821815,54.317188 78.122665,50.777790 
	C75.340347,54.472256 73.446945,56.986382 71.805916,59.165398 
	C68.534660,58.355797 65.433800,57.177670 62.252316,56.889450 
	C56.268402,56.347355 55.074577,58.239269 56.867970,63.885536 
	C59.673138,63.046249 62.464611,62.211060 65.256081,61.375870 
	C65.256081,63.386738 65.256081,65.397606 65.256081,67.681175 
	C66.246796,67.319351 67.618454,66.818413 68.990112,66.317474 
	C69.249649,66.773270 69.509186,67.229073 69.768723,67.684868 
	C67.379539,69.029373 64.990349,70.373878 61.941441,71.912186 
	C61.042614,70.778778 60.803513,69.451569 60.471813,67.610344 
	C53.673061,70.332008 56.366222,78.203102 51.531570,81.743073 
	C57.011154,84.994339 62.083630,85.733902 67.069366,83.677505 
	C68.615448,83.039810 69.285477,80.278137 70.356590,78.488884 
	C68.168495,77.866272 65.896446,76.592529 63.823112,76.859886 
	C62.534065,77.026108 61.545921,79.525772 59.691254,81.923988 
	C57.162868,81.752953 57.191998,79.347565 58.929607,76.803108 
	C59.975975,75.270866 61.947262,74.370247 63.502911,73.185776 
	C63.669361,73.189835 63.836166,73.203011 64.002213,73.196640 
	C70.856773,72.933983 74.235603,74.684288 74.693321,78.736847 
	C75.137070,82.665710 71.232262,86.655800 65.630455,87.827133 
	C64.013161,88.165306 62.293301,88.407211 60.666817,88.240623 
	C52.575207,87.411896 44.527561,85.793648 36.360142,87.826706 
	C35.212337,88.112411 33.727592,87.489990 32.517353,86.996941 
	C28.701937,85.442558 26.424818,82.632103 27.486740,78.434799 
	C28.560989,74.188782 32.108490,72.596909 36.029270,73.436455 
	C39.491615,74.177841 42.709564,76.060608 46.110249,77.470428 
	C49.978035,71.539803 49.520061,69.693741 43.037754,68.028961 
	C43.282158,69.355247 43.491543,70.491493 43.826241,72.307785 
	C40.094261,71.042915 36.758354,69.912285 33.422443,68.781654 
	C33.555256,68.201324 33.688068,67.621002 33.820881,67.040672 
	C35.586311,67.240204 37.351738,67.439728 38.830647,67.606873 
	C38.830647,65.529480 38.830647,63.415310 38.830647,61.301140 
	C41.414543,62.007694 43.998444,62.714249 46.403816,63.371986 
	C45.431122,55.672039 40.668198,54.378700 30.356216,59.794819 
	C29.403849,58.397938 28.480728,56.905586 27.415192,55.522987 
	C26.491068,54.323872 25.405609,53.249084 23.451487,51.072262 
	C23.011204,54.376537 22.761509,56.250481 22.505510,58.171722 
	C21.897852,57.974876 21.179756,57.742249 19.986824,57.355801 
	C19.606606,62.891449 19.234005,68.316185 18.805420,74.556015 
	C11.953684,62.897686 8.583463,51.487968 13.108611,38.705345 
	C17.644909,25.891218 28.401354,20.301096 40.750214,15.017344 
	C39.608852,17.241680 38.742508,18.743196 38.047241,20.320141 
	C35.979279,25.010525 33.367207,29.570856 32.086300,34.474205 
	C29.825649,43.128071 30.940435,44.214371 40.572227,44.785320 
	C42.326748,44.233860 43.328468,43.532772 44.330193,42.831680 
M30.842815,79.404922 
	C33.549187,83.574554 37.160603,83.173233 40.856983,82.342781 
	C40.988972,81.607727 41.120960,80.872665 41.252953,80.137604 
	C37.899643,79.654274 34.546337,79.170944 30.842815,79.404922 
z"/>
<path fill="#ECECEC" opacity="1.000000" stroke="none" 
	d="
M63.220970,73.069046 
	C61.947262,74.370247 59.975975,75.270866 58.929607,76.803108 
	C57.191998,79.347565 57.162868,81.752953 59.691254,81.923988 
	C61.545921,79.525772 62.534065,77.026108 63.823112,76.859886 
	C65.896446,76.592529 68.168495,77.866272 70.356590,78.488884 
	C69.285477,80.278137 68.615448,83.039810 67.069366,83.677505 
	C62.083630,85.733902 57.011154,84.994339 51.531570,81.743073 
	C56.366222,78.203102 53.673061,70.332008 60.471813,67.610344 
	C60.803513,69.451569 61.042614,70.778778 61.652481,72.136093 
	C62.328510,72.428230 62.633770,72.690277 63.220970,73.069046 
z"/>
<path fill="#1C1C1C" opacity="1.000000" stroke="none" 
	d="
M44.112709,42.542900 
	C43.328468,43.532772 42.326748,44.233860 40.947678,44.877945 
	C38.905048,41.538006 36.980537,38.349548 35.729076,34.915794 
	C35.342945,33.856339 36.791740,32.128124 37.807007,29.756050 
	C40.296883,34.867336 42.096054,38.560726 44.112709,42.542900 
z"/>
<path fill="#DBDBDB" opacity="1.000000" stroke="none" 
	d="
M31.017923,79.046272 
	C34.546337,79.170944 37.899643,79.654274 41.252953,80.137604 
	C41.120960,80.872665 40.988972,81.607727 40.856983,82.342781 
	C37.160603,83.173233 33.549187,83.574554 31.017923,79.046272 
z"/>
</svg>