<?xml version="1.0" encoding="UTF-8" standalone="no"?>
<svg
   xmlns:dc="http://purl.org/dc/elements/1.1/"
   xmlns:cc="http://creativecommons.org/ns#"
   xmlns:rdf="http://www.w3.org/1999/02/22-rdf-syntax-ns#"
   xmlns:svg="http://www.w3.org/2000/svg"
   xmlns="http://www.w3.org/2000/svg"
   id="svg4"
   version="1.1"
   height="512"
   width="512">
  <metadata
     id="metadata10">
    <rdf:RDF>
      <cc:Work
         rdf:about="">
        <dc:format>image/svg+xml</dc:format>
        <dc:type
           rdf:resource="http://purl.org/dc/dcmitype/StillImage" />
        <dc:title></dc:title>
      </cc:Work>
    </rdf:RDF>
  </metadata>
  <defs
     id="defs8" />
  <path
     id="path2"
     d="m 196.585,505.04201 a 256.254,256.25369 0 0 1 -16.234,-4.454 c -16.144,-4.93999 -31.784,-11.71998 -46.64,-19.73197 -7.816,-4.367 -14.421,-8.38799 -21.106,-12.88999 C 101.635,460.11606 90.79,451.64507 82.445,443.99408 75.43,437.53309 68.031,429.8541 61.744,422.50911 50.971,409.93312 41.921,397.09714 33.899,383.19516 A 258.283,258.28269 0 0 1 25.057,366.39818 256.119,256.11869 0 0 1 14.832,341.8652 256.22,256.21969 0 0 1 4.617,304.44125 C 3.467,298.55126 2.403,291.63127 1.68,285.33127 0.73,277.05128 0.21,269.21829 0.037,260.5643 c -0.5,-23.47997 2.811,-47.92794 8.44,-69.98691 1.622,-6.222 3.648,-12.68599 5.633,-18.45398 A 254.377,254.37669 0 0 1 28.1,139.45045 261.174,261.17369 0 0 1 41.228,116.80848 c 8.49,-12.99199 17.927,-24.941974 27.888,-35.609961 9,-9.651988 19.171,-18.829977 29.005,-26.592968 11.743,-9.143989 23.169,-16.70598 35.87,-23.649972 11.672,-5.958992 23.562,-11.547986 34.39,-15.541981 13.399,-4.849994 26.943,-8.6449894 41.39,-11.2849862 6.793,-1.2339985 12.864,-2.1069975 19.422,-2.7919966 9.05,-0.97999887 19.007,-1.34199843 26.844,-1.34399843 7.523,0.01299998 13.972,0.22999972 21.64,0.86099896 7.928,0.64699927 16.891,1.83699777 24.5,3.25199607 5.541,1.0299988 9.741,1.9309977 14.859,3.1899962 1.374,0.3359996 3.293,0.823999 4.157,1.0559987 8.497,2.2299973 17.58,5.1949933 25.577,8.2189903 1.653,0.627999 3.3,1.273998 4.938,1.939997 1.377,0.552 2.747,1.118999 4.11,1.701998 a 266.249,266.24868 0 0 1 11.53,5.236994 c 0.768,0.37 4.555,2.260997 5.422,2.707997 a 271.27,271.26967 0 0 1 9.016,4.866994 264.927,264.92668 0 0 1 7.906,4.665994 c 5.042,3.100997 9.379,5.971993 14.484,9.589989 8.464,6.192992 16.018,12.035985 23.874,19.262977 7.932,7.479991 15.97,15.602981 22.223,22.858972 11.73,13.969981 20.976,27.109971 29.293,41.891951 a 256.063,256.06269 0 0 1 17.448,38.24995 260.516,260.51569 0 0 1 3.927,11.81399 260.488,260.48769 0 0 1 2.964,10.49999 276.073,276.07267 0 0 1 3.257,14.26798 254.795,254.79469 0 0 1 3.952,27.93796 c 1.162,11.92999 1.064,28.55997 0.293,39.98496 -1.39,14.66098 -3.401,28.97496 -6.31,41.36195 a 272.691,272.69067 0 0 1 -2.16,8.40599 259.099,259.09869 0 0 1 -22.236,54.82993 c -4.46,7.62899 -8.82,15.09498 -13.16,21.45497 a 268.12,268.11968 0 0 1 -7.21,10.02599 c -9.061,12.03999 -19.59,23.49397 -29.609,32.88196 a 257.029,257.02869 0 0 1 -39.608,30.39997 c -10.869,6.78699 -22.677,12.94998 -34.772,18.11697 -6.17,2.53 -12.55,4.984 -18.181,6.967 -19.14,6.54199 -40.758,10.94998 -60.67,12.64298 -27.219,2.342 -55.796,-0.265 -80.906,-6.09599 z m 64.327,-18.81098 c 21.929,-0.522 43.359,-4.03299 63.937,-10.47399 a 228.151,228.15073 0 0 0 40.938,-17.37998 233.316,233.31572 0 0 0 27.858,-17.86697 c 11.13,-8.31999 21.425,-17.57998 30.985,-27.87697 a 233.83,233.82972 0 0 0 23.092,-29.24997 c 7.107,-10.83998 12.445,-20.13297 17.852,-31.92296 6.837,-14.96598 12.059,-30.80596 15.633,-47.42394 2.62,-12.17998 4.316,-25.29697 4.874,-37.70495 0.26,-5.79 0.305,-11.93499 0.125,-17.28098 -0.384,-11.44299 -1.508,-22.27598 -3.455,-33.31396 -2.543,-14.41499 -6.553,-28.86397 -11.733,-42.26695 a 243.167,243.16671 0 0 0 -3.218,-7.92199 c -6.45,-15.02998 -14.367,-29.12597 -23.953,-42.64295 -5.43,-7.65799 -11.675,-15.35298 -18.294,-22.54797 -4.34,-4.679998 -8.527,-8.896993 -12.549,-12.673989 -10.669,-9.684988 -19.785,-17.074979 -31.546,-24.74997 -3.858,-2.509997 -8.184,-5.146994 -11.75,-7.163991 -9.65,-5.459994 -18.566,-9.747989 -28.656,-13.779984 -8.009,-3.214996 -17.094,-6.179992 -25.015,-8.33399 -5.672,-1.550998 -12.066,-2.967996 -17.313,-3.969995 a 230.004,230.00372 0 0 0 -60.155,-3.329996 c -2.224,0.165 -5.418,0.461999 -7.89,0.734999 a 227.725,227.72473 0 0 0 -77.328,22.848973 c -7.735,3.868995 -15.812,8.540989 -22.422,12.802984 -17.579,11.421986 -34.163,25.815969 -48.22,41.849949 -12.947,14.76998 -24.266,31.71596 -33.144,49.62594 -6.1,12.30599 -10.954,24.76597 -14.635,37.56396 -3.622,12.59398 -6.075,24.63697 -7.499,36.81395 -1.11,9.49599 -1.605,19.03998 -1.535,29.61297 0.046,7.13999 0.215,11.08498 0.724,16.90498 0.717,8.21299 1.648,15.22598 3,22.59497 0.386,2.103 0.755,3.95999 1.311,6.59299 1.073,5.08099 2.702,11.48999 4.246,16.70498 l 0.232,0.78 c 2.456,8.29799 5.843,17.56498 9.412,25.75097 a 235.133,235.13272 0 0 0 8.883,18.18898 c 9.775,17.92597 21.982,34.45995 35.442,48.68994 a 253.06,253.0597 0 0 0 10.55,10.42198 c 7.653,7.105 15.15,13.20399 23.609,19.20798 7.267,5.16 15.707,10.38999 23.78,14.73598 a 256.27,256.26969 0 0 0 10,5.09 c 11.854,5.64999 23.355,10.01899 35.578,13.50998 a 232.173,232.17272 0 0 0 50.203,8.51899 c 6.303,0.328 11.659,0.469 18.046,0.33 z m 17.287,-40.17595 c -2.59,-0.426 -5.686,-1.05 -8.975,-1.81 -4.765,-1.101 -10.453,-2.796 -15.343,-4.57199 -4.766,-1.731 -8.537,-3.337 -14.435,-6.146 -1.17,-0.55599 -1.368,-0.64199 -1.43,-0.61399 a 56.51,56.509932 0 0 0 -0.97,0.54599 c -3.652,2.084 -7.182,3.75 -10.867,5.13 -4.56,1.706 -9.126,2.94999 -14.61,3.97999 -7.828,1.473 -14.035,2.152 -21.187,2.319 -1.73,0.04 -6.555,0.021 -7.828,-0.032 -4.125,-0.17 -6.65,-0.454 -10.47,-1.174 -2.997,-0.566 -5.155,-1.09 -7.593,-1.844 -5.185,-1.60399 -10.039,-3.96999 -14.078,-6.85999 -3.76,-2.68999 -6.917,-5.85199 -9.444,-9.45699 -2.238,-3.19199 -3.893,-6.59499 -5.106,-10.49598 -1.075,-3.459 -1.402,-5.555 -1.48,-9.46599 -0.083,-4.232 0.135,-6.87699 0.785,-9.49999 0.696,-2.811 1.721,-5.50699 2.895,-7.61399 1.574,-2.822 4.044,-5.79199 7.242,-8.70599 0.84,-0.766 2.17,-1.839 3.14,-2.533 4.516,-3.23399 9.569,-5.33699 15.484,-6.44699 3.85,-0.722 6.95,-0.889 11.937,-0.642 0.516,0.025 1.079,0.06 1.25,0.077 0.172,0.017 0.72,0.067 1.22,0.111 2.309,0.203 4.75,0.56 6.742,0.983 6.897,1.467 14.134,4.15799 21.163,7.86999 0.72,0.38 1.643,0.877 1.984,1.07 2.875,1.621 4.587,2.672 7.25,4.44599 2.533,1.688 3.782,2.608 10.798,7.95499 2.195,1.674 3.74,2.81 4.413,3.25 0.25,0.164 0.26,0.167 0.335,0.117 0.358,-0.234 1.692,-2.493 3.166,-5.36199 3.973,-7.73399 6.688,-16.60298 8.209,-26.81397 0.66,-4.44 1.11,-9.53399 1.11,-12.58699 v -1.07 h -1.857 c -1.022,0 -1.865,-0.013 -1.874,-0.028 -0.01,-0.015 -0.134,-0.037 -0.276,-0.048 -0.832,-0.07 -1.652,-0.255 -2.79,-0.632 -3.74,-1.238 -8.484,-3.486 -13.937,-6.606 -3.296,-1.88599 -6.455,-3.84799 -10.64,-6.60799 -1.749,-1.154 -3.209,-2.079 -3.28,-2.079 -0.06,0 0.243,0.685 0.991,2.235 1.3,2.69 2.957,6.45599 4.67,10.60999 0.42,1.018 1.556,3.83699 1.713,4.24999 0.049,0.129 0.16,0.417 0.249,0.64 0.825,2.098 1.83,4.84 2.29,6.25 0.864,2.63999 0.942,3.70699 0.364,4.91999 -0.725,1.524 -1.786,2.4 -3.2,2.649 -0.4,0.07 -1.538,0.078 -1.89,0.014 -0.54,-0.1 -1.072,-0.336 -1.955,-0.873 -1.172,-0.714 -2.349,-1.42 -3.53,-2.12 -3.723,-2.175 -6.752,-3.72 -10.547,-5.37599 -5.445,-2.378 -8.399,-3.293 -12.626,-3.913 -1.093,-0.16 -2.144,-0.288 -4.78,-0.58 -2.536,-0.282 -4.02,-0.45 -5.11,-0.58 -1.323,-0.157 -1.66,-0.186 -2.207,-0.186 -0.83,-0.001 -1.426,0.074 -3.12,0.393 -1.687,0.315 -3.084,0.618 -4.72,0.73 -0.814,0.078 -2.315,0.016 -2.61,-0.108 a 4.075,4.0749951 0 0 0 -0.264,-0.095 c -0.53,-0.17 -1.19,-0.657 -1.48,-1.094 -0.21,-0.32 -0.334,-0.353 -1.426,-0.39 -1.248,-0.04 -1.445,-0.097 -1.891,-0.546 -0.263,-0.267 -0.43,-0.516 -0.517,-0.77 a 0.776,0.77599907 0 0 0 -0.127,-0.23499 c -0.288,-0.307 -1.96,-0.8 -3.419,-1.01 -0.7,-0.1 -1.019,-0.127 -1.766,-0.148 -1.096,-0.03 -1.517,0.045 -2.265,0.41 -0.59,0.287 -1.037,0.593 -1.392,0.94999 -0.614,0.62 -0.84,1.163 -1.094,2.61 -0.057,0.323 -0.113,0.57 -0.125,0.546 -0.025,-0.046 -0.194,-0.744 -0.355,-1.463 -0.234,-1.045 -0.226,-1.463 0.047,-2.45399 0.47,-1.712 1.44,-3.12 2.825,-4.106 1.64,-1.058 2.803,-1.208 4.697,-1.163 0.534,0.077 1.026,0.122 1.598,0.191 0.791,0.13 1.046,0.116 1.082,-0.058 0.087,-0.414 0.108,-0.46 0.315,-0.69 0.35,-0.39 0.9,-0.627 1.358,-0.585 0.439,0.041 0.923,0.165 1.889,0.485 0.258,0.086 0.566,0.173 0.684,0.193 0.365,0.064 0.91,0.021 1.768,-0.137 0.905,-0.167 1.25,-0.209 1.726,-0.208 1.078,0 2.016,0.278 3.805,1.124 1.467,0.694 2.684,1.148 3.47,1.294 1.57,0.292 4.624,0.517 4.879,0.36 0.032,-0.02 0.028,-0.036 -0.021,-0.074 -0.139,-0.107 -2.028,-1.019 -3.53,-1.704 -4.155,-1.895 -7.11,-3.23999 -7.625,-3.46899 -1.196,-0.53 -1.812,-0.682 -3.157,-0.78 -0.83,-0.06 -2.595,-0.132 -3.016,-0.122 -0.63,0.078 -1.25,-0.111 -1.805,-0.232 a 1.035,1.0349988 0 0 1 -0.357,-0.136 c -0.342,-0.237 -0.833,-1.009 -1.16,-1.825 -0.177,-0.44 -0.338,-1.077 -0.43,-1.697 l -0.069,-0.463 -0.94,0.01 c -1.032,0.011 -1.23,-0.01 -1.57,-0.178 -0.402,-0.196 -0.947,-1.027 -0.949,-1.446 -0.004,-0.53999 -1.06,-0.93999 -2.814,-1.06999 -0.878,-0.063 -1.76,-0.026 -2.238,0.095 -0.61,0.155 -1.553,0.75999 -2.035,1.30399 -0.674,0.761 -1.002,1.56 -1.57,3.82 -0.121,0.488 -0.232,0.906 -0.245,0.93 -0.023,0.04 -0.348,-1.05 -0.455,-1.525 -0.175,-0.78 -0.212,-2.008 -0.086,-2.868 0.397,-2.14199 1.057,-3.17799 2.66,-4.60699 0.621,-0.441 1.42,-0.768 2.612,-1.066 1.225,-0.307 2.22,-0.47 3.185,-0.518 0.625,-0.032 0.773,-0.072 0.94,-0.258 0.236,-0.613 0.67,-1.108 1.003,-1.496 0.21,-0.175 0.45,-0.308 0.711,-0.39 0.365,-0.104 0.73,0.015 2.25,0.733 1.366,0.645 1.693,0.754 2.14,0.71 0.114,-0.012 0.524,-0.098 0.912,-0.192 1.009,-0.243 1.36,-0.3 1.998,-0.318 0.415,-0.013 0.63,-0.004 0.895,0.034 1.194,0.176 2.656,1.003 3.465,1.96 0.12,0.142 0.24,0.28 0.264,0.307 0.057,0.06 0.526,0.762 0.597,0.893 l 0.465,0.89 c 0.422,0.812 0.653,1.205 0.958,1.629 0.713,0.99099 1.777,1.85999 3.802,3.09999 1.37,0.84 3.187,1.77 5.257,2.686 1.192,0.528 2.397,0.978 2.558,0.955 0.06,-0.01 0.054,-0.024 -0.071,-0.16 -0.308,-0.334 -2.074,-1.676 -4.628,-3.518 l -1.859,-1.34 c -2.827,-2.03899 -4.16,-3.51899 -4.685,-5.19999 -0.142,-0.452 -0.198,-0.821 -0.223,-1.45 -0.035,-0.927 -0.064,-0.981 -0.695,-1.284 -0.507,-0.243 -0.749,-0.408 -0.99,-0.675 -0.21,-0.23 -0.42,-0.62 -0.478,-0.883 a 5.66,5.6599932 0 0 1 -0.054,-0.70999 c -0.012,-0.481 -0.02,-0.545 -0.11,-0.812 -0.56,-1.68 -3.086,-3.966 -5.182,-4.694 -0.61,-0.212 -1.243,-0.291 -1.63,-0.204 -0.75,0.168 -1.897,0.74 -2.49,1.246 -0.183,0.188 -0.436,0.558 -0.504,0.65 -0.004,-0.2 -0.025,-0.31 0.124,-0.77 0.256,-0.79 0.612,-1.36 1.256,-2.013 0.327,-0.332 0.836,-0.784 0.94,-0.834 a 11.2,11.199987 0 0 0 0.346,-0.22099 c 0.686,-0.45 1.196,-0.673 2.015,-0.877 0.84,-0.21 1.725,-0.29 2.423,-0.218 1.944,0.099 3.613,1.37299 4.717,2.43799 0.72,0.698 0.88,0.83 1.05,0.883 0.16,0.048 0.248,0.007 0.545,-0.252 0.12,-0.105 0.31,-0.238 0.421,-0.296 0.398,-0.206 0.692,-0.22 1.106,-0.053 0.122,0.05 0.26,0.098 0.305,0.108 0.045,0.01 0.09,0.046 0.098,0.079 0.01,0.033 0.072,0.09 0.142,0.125 0.245,0.125 0.787,0.737 1.646,1.86 0.395,0.517 0.657,0.795 0.967,1.025 0.32,0.24 0.662,0.4 1.483,0.696 0.367,0.133 0.75,0.289 0.85,0.345 0.16,0.053 0.3,0.176 0.43,0.253 0.402,0.262 0.554,0.586 0.803,0.934 0.323,0.536 0.588,1.45399 1.063,3.68699 0.572,2.688 1.026,4.17 1.714,5.594 0.65,1.34399 1.326,2.26399 2.595,3.53299 2.092,2.091 3.894,3.35 6.744,4.707 3.81,1.81299 6.72,2.80499 9.289,3.16499 0.803,0.112 1.615,0.21 1.63,0.195 0.006,-0.007 -0.138,-0.243 -0.321,-0.525 a 65.415,65.414921 0 0 1 -5.774,-11.00698 c -0.077,-0.17 -0.175,-0.418 -0.57,-1.444 -0.255,-0.663 -0.308,-0.814 -0.683,-1.921 -0.596,-1.76 -1.144,-3.771 -1.438,-5.28199 -0.269,-1.378 -0.802,-3.207 -1.448,-4.968 -0.362,-0.987 -0.67,-1.97 -0.79,-2.516 -0.363,-1.11199 -0.337,-2.26799 -0.033,-3.39099 0.121,-0.31 0.47,-1.033 0.77,-1.594 1.048,-1.96 1.991,-3.123 3.291,-4.05599 0.677,-0.484 1.4,-0.807 2.163,-1.14 0.38,-0.156 0.979,-0.346 1.502,-0.478 0.554,-0.14 0.476,-0.126 1.076,-0.192 1.756,-0.182 3.52,0.067 5.125,0.476 2.692,0.698 6.071,2.13199 9.515,4.03999 5.256,2.909 11.463,7.13999 18.38,12.52599 l 1.214,0.95 a 293.757,293.75665 0 0 1 6.828,5.57699 c 0.67,0.562 1.26,1.052 1.31,1.088 0.09,0.064 0.088,0.058 -0.06,-0.214 -0.082,-0.153 -0.26,-0.47 -0.391,-0.701 a 77.213,77.212907 0 0 1 -2.186,-4.047 90.202,90.201891 0 0 1 -1.532,-3.21999 85.71,85.709897 0 0 1 -2.38,-5.98299 111.224,111.22387 0 0 1 -1.286,-3.892 c -1.124,-3.61 -2.129,-7.67699 -2.928,-11.18799 -1.239,-5.32999 -2.18,-7.58099 -4.052,-9.67599 a 23.513,23.512972 0 0 0 -1.651,-1.62399 c -2.408,-2.061 -5.512,-3.387 -9.97,-4.26 -0.68,-0.133 -1.742,-0.31 -2.252,-0.375 -3.567,-0.456 -10.884,-0.616 -15.84,-0.345 -1.134,0.062 -1.76,0.117 -2.89,0.25 -8.54,1.018 -17.227,3.205 -26.657,6.70999 -5.621,2.091 -11.828,4.748 -13.163,5.636 -0.28,0.187 -0.319,0.225 -0.505,0.506 -0.426,0.64 -1.113,1.94199 -2.26,4.28599 -0.7,1.426 -1.554,3.108 -1.894,3.726 -0.235,0.427 -0.8,1.32 -0.823,1.298 -0.006,-0.006 0.023,-0.327 0.065,-0.712 0.148,-1.349 0.202,-2.685 0.226,-5.592 0.024,-2.88199 -0.01,-3.42999 -0.252,-3.89499 -0.043,-0.083 -0.458,-0.626 -0.922,-1.206 -3.47,-4.338 -5.29,-6.95799 -9.085,-13.07998 l -0.398,-0.64 c -0.11,-0.175 -0.354,-0.573 -0.542,-0.882 -6.109,-10.02699 -7.639,-12.28199 -10.08,-14.85998 -1.783,-1.886 -3.396,-3.14 -4.835,-3.762 -0.98,-0.424 -1.82,-0.609 -3.085,-0.68 -1.256,-0.07 -1.814,0.044 -2.735,0.562 -1.904,1.312 -2.722,2.688 -3.664,4.70799 -0.996,2.468 -1.643,5.57 -1.937,9.27999 -0.415,5.23 -0.158,9.98699 0.735,13.62699 0.456,1.86199 1.16,3.67699 1.935,4.98499 0.433,0.732 1.006,1.382 1.518,1.722 0.644,0.43 1.48,0.702 2.702,0.885 0.18,0.027 0.221,0.052 0.42,0.074 -0.441,0.416 -1.185,0.572 -1.582,0.68 -1.617,0.29 -3.31,-0.435 -4.28,-1.259 a 27.331,27.330967 0 0 1 -3.735,-3.696 c -1.953,-1.97 -3.857,-4.27299 -6.052,-5.85799 -0.59,-0.33 -1.728,-0.516 -2.282,-0.374 -1.784,0.454 -3.735,3.56 -4.709,7.49799 -1.013,5.06299 -1.039,9.45999 -0.592,14.07798 0.684,6.95 2.447,13.71999 4.8,18.43898 0.614,1.23 1.105,2.07 1.714,2.938 1.143,1.627 2.043,2.392 3.214,2.72999 0.559,0.163 0.746,0.182 1.957,0.203 l 1.14,0.02 -0.488,0.32 c -0.66,0.434 -1.024,0.577 -1.697,0.666 -0.388,0.05 -1.331,0.02 -1.828,-0.06 -1.22,-0.198 -2.202,-0.634 -3.266,-1.169 -0.5,-0.27999 -0.983,-0.58999 -1.447,-0.92599 -1.365,-0.972 -2.643,-1.631 -3.678,-1.899 -0.574,-0.153 -0.931,-0.064 -1.515,-0.031 -0.703,0.19 -1.185,0.483 -1.783,1.081 -1.625,1.90799 -2.176,3.67699 -2.699,6.09599 -0.33,2.287 -0.254,5.98599 0.188,9.06199 0.66,4.59799 3.67,12.67898 7.316,19.64198 2.896,5.52999 5.652,9.72798 8.26,12.57998 1.055,1.156 1.485,1.738 1.735,2.353 0.166,0.407 0.205,0.594 0.222,1.067 0.02,0.516 -0.016,0.78299 -0.225,1.71999 -0.222,0.997 -0.203,1.307 0.13,2.123 0.67,1.64 1.865,2.867 3.414,3.502 1.135,0.465 2.602,0.68 3.94,0.58 1.594,-0.12 2.846,-0.626 4.247,-1.718 1.139,-0.886 1.274,-0.976 1.396,-0.93 0.079,0.03 0.053,0.255 -0.067,0.576 -0.26,0.693 -0.815,1.864 -1.08,2.275 -0.884,1.36999 -2.272,2.24599 -4.151,2.61999 -0.743,0.15 -1.405,0.206 -2.375,0.206 -2.588,0 -4.154,-0.43 -5.875,-1.618 -0.56,-0.38499 -0.988,-0.73999 -1.86,-1.53999 -1,-0.919 -1.236,-1.113 -1.538,-1.264 -0.257,-0.128 -0.456,-0.147 -0.944,-0.09 a 4.47,4.4699946 0 0 1 -0.736,0.032 c -1.323,-0.076 -2.35,-0.988 -4.39,-3.896 -2.583,-3.77399 -5.275,-8.03399 -7.439,-11.53198 a 337.28,337.27959 0 0 1 -4.025,-6.733 309.381,309.38063 0 0 1 -7.506,-13.67298 c -2.901,-5.61299 -5.893,-11.98798 -8.264,-17.46998 -3.501,-8.14499 -6.715,-16.92198 -9.136,-24.70397 -7.313,-24.07497 -10.45,-51.87194 -8.55,-74.56491 1.272,-10.90198 2.466,-18.89198 5.235,-29.00996 6.105,-19.64998 15.94,-40.30495 26.436,-55.22794 8.36,-11.61398 17.622,-21.70197 28.534,-30.79996 8.999,-7.69699 20.042,-14.50498 29.87,-20.08398 8.009,-4.58499 16.47,-8.581985 24.86,-12.41398 0.874,-0.401 1.357,-0.62 3.937,-1.791998 5.343,-2.426997 7.079,-3.229996 8.947,-4.148995 2.78,-1.365999 3.667,-1.917998 5.506,-3.419996 0.496,-0.514999 0.745,-0.583999 1.336,-0.666999 0.597,0.053 0.9,0.665999 1.58,0.572999 0.282,-0.101 0.53,-0.177 1.054,-0.553999 1.104,-0.793999 1.701,-1.299999 2.61,-2.208998 1.417,-1.419998 2.363,-2.719996 3.2,-4.398994 0.8,-1.602998 1.282,-3.255996 1.439,-4.929994 0.05,-0.538 0.042,-1.607998 -0.016,-2.047998 -0.168,-1.281998 -0.642,-2.281997 -1.466,-3.093996 -0.67,-0.660999 -1.57,-1.159999 -2.653,-1.470998 -0.804,-0.16 -1.698,-0.377 -2.438,-0.53 l 0.747,-0.243 c 1.52,-0.494999 2.343,-0.717999 3.2,-0.863998 1.725,-0.293 2.988,-0.23 4.292,0.216999 0.81,0.248 1.49,0.737999 2.13,1.218999 1.2,1.011999 1.857,2.200997 2.523,3.546996 0.282,0.629999 0.56,1.429998 0.764,2.186997 0.177,0.661999 0.225,0.922999 0.36,1.984998 0.06,0.457999 0.049,1.866997 -0.016,2.343997 -0.501,3.650995 -2.05,6.827991 -3.872,9.819988 a 39.246,39.245953 0 0 1 -1.866,2.694997 c -1.083,1.451998 -1.175,1.615998 -1.067,1.899997 0.034,0.089 0.283,0.429 0.314,0.429 0.227,0.246 0.265,0.636999 0.34,0.859999 0.012,0.294999 -0.025,0.509999 -0.13,0.743999 -0.128,0.379999 -0.416,0.704999 -0.622,0.979999 -0.09,0.129 -0.656,0.805999 -1.259,1.509998 -1.613,1.882998 -2.68,3.432996 -4.585,6.656992 -1.217,2.058997 -3.579,6.251989 -5.43,9.639989 -9.291,16.99898 -16.86,33.08596 -21.82,46.37694 -1.491,4 -2.831,8.04299 -3.707,11.18899 -2.188,7.85799 -4.387,20.46598 -4.769,27.34397 -0.122,6.44599 -0.38,13.41398 1.238,19.24997 1.54,5.38 4.139,9.20099 7.278,10.70099 5.6,1.548 12.015,1.503 17.202,1.893 8.877,0.388 15.081,0.723 23.547,0.218 3.411,-0.208 9.658,-1.275 11.593,-1.98 0.575,-0.21 0.65,-0.314 0.312,-0.435 -0.262,-0.094 -1.31,-0.362 -2.28,-0.584 -3.743,-0.853 -5.566,-1.341 -7.73,-2.068 -3.258,-1.14699 -6.114,-2.33999 -9.083,-4.10399 a 37.766,37.765955 0 0 1 -2.985,-1.985 c -1.702,-1.326 -3.059,-2.564 -4.19,-4.29599 -1.014,-1.91 -1.44,-3.934 -1.76,-5.984 -0.359,-2.19299 -0.458,-4.18799 -0.597,-6.30399 -0.02,-0.202 -0.045,-1.93 -0.063,-4.63499 -0.073,-1.631 0.121,-3.417 -0.198,-4.974 -0.39,-0.79 -0.799,-1.64699 -1.143,-2.36499 -0.91,-1.87 -1.173,-3.459 -1.724,-5.416 -0.24,-0.74 -0.408,-1.105 -0.617,-1.33 -0.336,-0.363 -1.083,-0.79799 -2.082,-1.21399 -0.707,-0.294 -0.772,-0.323 -0.89,-0.4 -0.544,-0.162 -0.83,-0.553 -1.158,-0.96 -0.052,-0.136 -0.604,-0.832 -0.934,-1.177 -0.415,-0.433 -0.756,-0.705 -1.112,-0.888 -0.38,-0.194 -0.65,-0.397 -0.715,-0.532 a 1.004,1.0039988 0 0 1 -0.071,-0.255 c -0.037,-0.29 -0.206,-0.484 -0.714,-0.816 a 9.11,9.109989 0 0 0 -1.36,-0.673 c -1.211,-0.431 -2.533,-0.48 -3.749,-0.062 -0.806,0.27 -2.216,1.188 -2.39,1.31 -0.478,0.296 -0.538,0.322 -0.695,0.419 0.158,-0.629 0.29,-1.078 0.625,-1.683 0.34,-0.505 0.874,-1.07 1.428,-1.51 l 0.375,-0.297 a 0.879,0.87899894 0 0 1 0.167,-0.11 c 0.032,-0.011 0.138,-0.075 0.235,-0.13999 0.748,-0.507 1.84,-0.975 2.75,-1.18 a 6.326,6.3259924 0 0 1 2.457,-0.09 c 0.292,0.043 0.553,0.084 0.579,0.092 0.026,0.008 0.18,0.03 0.344,0.05 0.163,0.019 0.358,0.06 0.433,0.094 0.147,0.065 1.088,0.25 1.55,0.307 0.38,0.047 0.695,0.054 1.036,0.024 0.422,-0.037 0.587,0.018 0.87,0.292 0.358,0.344 0.676,0.516 1.564,0.84399 0.24,0.09 0.557,0.223 0.703,0.297 0.634,0.252 1.015,0.625 1.49,0.994 0.014,0.023 0.145,0.147 0.29,0.274 0.147,0.127 0.561,0.497 0.922,0.822 1.172,1.056 2.031,1.752 2.137,1.73 0.038,-0.008 0.05,-0.044 0.048,-0.145 -0.004,-0.18 -0.248,-0.657 -0.625,-1.224 -0.47,-0.708 -0.91,-1.26 -1.534,-1.924 -0.403,-0.43 -0.553,-0.6 -0.81,-0.921 -0.358,-0.38099 -0.616,-0.80599 -0.87,-1.24799 -0.287,-0.565 -0.663,-1.045 -1.076,-1.37 -0.305,-0.24 -0.535,-0.493 -0.606,-0.666 a 1.478,1.4779982 0 0 1 -0.07,-0.328 c -0.026,-0.262 -0.088,-0.41 -0.302,-0.722 -0.206,-0.301 -0.902,-1.005 -1.338,-1.35 -1.016,-0.809 -2.342,-1.499 -3.552,-1.849 -1.31,-0.378 -2.78,-0.445 -4,-0.182 a 7.988,7.9879904 0 0 0 -1.667,0.592 c -0.767,0.363 -0.775,0.365 -1.025,0.496 0.146,-0.198 1.356,-1.523 1.894,-1.98999 0.3,-0.295 0.64,-0.501 0.962,-0.718 0.116,-0.112 1.01,-0.666 1.257,-0.779 1.1,-0.464 2.395,-0.611 3.17,-0.668 0.773,-0.057 2.752,0.026 3.32,0.138 0.694,0.06 1.398,0.33 1.923,0.536 1.023,0.492 1.782,1.165 2.558,1.86799 0.481,0.46 0.844,0.744 1.113,0.871 0.157,0.075 0.211,0.086 0.338,0.07 0.262,-0.035 0.49,0.057 0.731,0.295 0.356,0.352 1.186,1.016 1.708,1.365 0.327,0.219 0.376,0.289 0.787,1.11 0.427,0.853 0.766,1.653 0.882,2.08 0.088,0.326 0.343,0.718 1.152,1.764 0.107,0.17 0.262,0.302 0.392,0.452 -0.04,-0.235 -0.071,-0.474 -0.1,-0.671 a 6.808,6.8079918 0 0 0 -0.318,-1.343 c -0.248,-0.764 -0.615,-1.67 -1.142,-2.813 -0.46,-0.875 -0.706,-1.662 -0.99,-2.495 -0.06,-0.314 -0.102,-0.417 -0.255,-0.615 -0.07,-0.094 -0.124,-0.2 -0.16,-0.313 -0.038,-0.14399 -0.037,-0.16199 0.02,-0.23399 0.035,-0.043 0.116,-0.17 0.18,-0.282 0.106,-0.18 0.118,-0.224 0.115,-0.406 -0.004,-0.236 -0.098,-0.516 -0.327,-0.973 -0.68,-1.36 -1.832,-2.683 -2.776,-3.193 -0.55,-0.296 -1.66,-0.455 -3.237,-0.462 -0.531,0.007 -0.937,-0.022 -1.435,-0.044 l 0.546,-0.262 c 0.574,-0.312 1.087,-0.525 1.615,-0.755 1.137,-0.497 2.372,-0.634 3.61,-0.686 0.661,-0.05 1.352,0.116 1.945,0.238 1.055,0.296 1.888,0.953 2.693,1.67 0.523,0.521 0.86,0.922 1.22,1.452 0.42,0.621 0.616,0.836 0.82,0.903 0.078,0.027 0.16,0.042 0.243,0.045 0.13,-0.01 0.217,0.052 0.24,0.17 0.015,0.084 0.09,0.167 0.37,0.415 0.574,0.508 0.984,0.916 1.116,1.11 0.343,0.58 0.377,1.218 0.409,1.64599 0,0.416 -0.013,0.597 -0.05,0.726 -0.076,0.258 -0.144,1.274 -0.128,1.907 0.015,0.638 0.079,1.04 0.302,1.924 0.42,1.662 1.143,3.51299 2.234,5.71699 0.942,1.905 1.688,3.207 3.07,5.364 0.633,0.98699 0.913,1.44199 1.198,1.94899 0.663,1.088 1.027,2.105 1.184,3.378 0.093,0.606 0.146,1.08 0.25,2.216 0.167,1.79999 0.315,2.99199 0.434,3.48599 0.31,2.21 0.349,4.74 0.361,6.85799 0.016,2.824 0.062,4.57 0.128,4.87 0.051,0.23 0.168,0.416 1.228,1.958 2.02,2.93999 4.261,5.58799 6.928,8.18599 3.137,3.05699 5.963,4.79199 8.562,5.25499 0.53,0.095 1.504,0.117 2.08,0.047 0.942,-0.115 1.881,-0.401 2.95,-0.9 1.118,-0.522 2.215,-1.213 3.813,-2.4 a 152.981,152.98082 0 0 1 5.465,-3.82599 c 0.795,-0.52 1.56,-1.024 2.395,-1.57 1.492,-0.972 2.063,-1.36 2.154,-1.465 0.152,-0.173 0.175,-0.304 0.17,-0.998 -0.008,-1.23 -0.388,-5.66299 -1.183,-13.79798 -0.463,-4.78699 -0.945,-9.57299 -1.421,-14.35998 -0.368,-3.67 -0.728,-7.34299 -1.08,-11.01499 a 628.664,628.66324 0 0 1 -0.873,-9.95399 179.324,179.32378 0 0 1 -0.488,-8.75899 64.65,64.649922 0 0 1 0.143,-6.53999 c 0.215,-3.098 0.859,-7.42999 2.015,-13.54698 0.15,-0.798 0.834,-4.21 1.375,-6.86999 l 0.247,-1.216 -0.861,-1.707 a 99.924,99.92388 0 0 0 -0.884,-1.73 c -0.085,-0.094 -6.04,2.228 -7.674,2.99 -1.065,0.497 -2.636,1.465 -3.784,2.32999 a 23.457,23.456972 0 0 0 -2.716,2.358 c -1.496,1.497 -2.42,2.7 -3.47,4.522 -0.58,1.003 -1.583,2.67299 -1.85,3.07699 a 31.632,31.631962 0 0 1 -2.69,3.668 c -0.928,1.118 -2.266,2.232 -3.432,3.04599 -1.232,0.866 -2.625,1.485 -4.057,2.018 -0.434,0.193 -1.84,0.55 -2.64,0.67 -1.184,0.22 -2.367,0.213 -3.235,0.213 -2.885,0.023 -5.091,-0.5 -7.719,-1.727 -1.799,-0.91 -3.246,-1.99099 -4.999,-3.73399 -0.856,-0.852 -1.254,-1.328 -1.11,-1.328 0.017,0 0.031,-0.021 0.031,-0.047 0,-0.066 0.085,-0.06 0.122,0.01 0.017,0.03 0.091,0.075 0.165,0.097 0.213,0.063 0.674,0.265 1.336,0.586 2.087,1.012 4.415,1.79 6.58,2.199 1.77,0.334 3.59,0.367 5.032,0.09 2.068,-0.394 3.79,-1.371 5.2,-2.946 1.38,-1.543 2.161,-3.04 3.88,-7.42799 0.622,-1.735 1.39,-3.403 2.216,-5.048 0.924,-1.64999 2.104,-3.32399 3.172,-4.56199 1.149,-1.326 2.51,-2.417 3.813,-3.36 1.283,-0.918 2.876,-1.78299 5.03,-2.72999 2.51,-1.116 4.555,-1.857 7.797,-3.394 0.1,-0.063 0.183,-0.11 0.285,-0.171 -0.007,-0.193 -0.064,-0.397 -0.09,-0.563 -0.042,-0.148 -0.053,-0.33 -0.052,-0.86 -0.098,-0.385 0.066,-0.696 0.13,-1.05 0.241,-0.70999 0.624,-1.37699 1.467,-2.560993 0.607,-0.853999 0.883,-1.365998 1.104,-2.043997 0.262,-0.807999 0.482,-2.141998 0.579,-3.506996 0.025,-0.356 0.066,-0.764999 0.09,-0.909999 0.026,-0.143 0.062,-0.449999 0.08,-0.679999 0.076,-0.943999 0.094,-1.086999 0.17,-1.327998 0.31,-1.796998 1.764,-2.922997 2.878,-3.655996 0.872,-0.570999 1.3,-0.896999 1.73,-1.309998 0.443,-0.43 0.707,-0.778 0.926,-1.219999 0.36,-0.729999 0.485,-1.356998 0.485,-2.439997 0,-0.899999 -0.1,-1.817998 -0.348,-3.185996 -0.264,-1.462998 -0.546,-2.699997 -1.511,-6.624992 -0.428,-1.739998 -0.54,-2.205998 -0.58,-2.405997 -0.353,-1.302999 -0.63,-2.750997 -0.698,-3.952996 -10e-4,-0.479999 0.012,-0.726999 0.055,-0.983998 0.11,-0.665 0.238,-1.009999 0.706,-1.906998 0.09,-0.172 0.343,-0.670999 0.563,-1.109999 0.889,-1.773998 1.066,-2.301997 1.219,-3.623995 0.11,-0.955999 0.28,-1.531999 0.633,-2.139998 0.554,-0.956999 1.757,-2.085997 3.304,-3.102996 1.25,-0.877999 2.675,-1.579998 4.078,-2.234997 0.412,-0.207 1.108,-0.498 2.781,-1.162999 0.497,-0.195 0.992,-0.396 1.484,-0.601999 0.224,-0.106 0.413,-0.105 0.598,0.003 0.146,0.084 0.507,0.239999 1.762,0.755999 1.723,0.707999 2.32,0.979999 3.485,1.585998 0.67,0.347999 0.983,0.518999 1.187,0.646999 0.676,0.392 1.327,0.824999 1.95,1.297999 0.2,0.153999 0.41,0.312999 0.466,0.352999 0.285,0.206 1.284,1.185999 1.552,1.521998 0.503,0.538 0.745,1.149999 0.998,1.816998 0.066,0.126 0.085,0.242 0.192,1.149999 0.17,1.456998 0.381,2.069997 1.382,4.015995 0.268,0.479999 0.48,0.985999 0.702,1.484998 0.095,0.268 0.151,0.518999 0.227,0.796999 0.216,0.872999 0.116,1.618998 -0.002,2.527997 a 72.874,72.873912 0 0 1 -0.593,2.871997 c -0.159,0.690999 -0.293,1.231998 -1.104,4.443994 -0.467,1.850998 -0.728,2.989997 -0.938,4.093995 -0.616,3.233996 -0.505,4.997994 0.4,6.357993 0.528,0.792999 1.29,1.432998 2.924,2.454997 0.257,0.162 0.486,0.344999 0.732,0.523999 0.669,0.510999 0.986,1.119999 1.334,1.819998 0.394,1.119999 0.463,2.429997 0.59,3.438996 0.054,0.823999 0.256,2.373997 0.41,3.143996 0.13,0.654999 0.32,1.209999 0.58,1.698998 0.445,0.729999 0.908,1.447998 1.389,2.155997 0.34,0.512004 0.554,1.073004 0.777,1.634994 0.214,0.652 0.151,1.282 0.078,1.993 0,0.47 0.575,0.784 4.452,2.42 1.31,0.562 2.628,1.114 3.924,1.702 1.087,0.5 1.94,0.95 2.955,1.497 0.442,0.23999 1.367,0.81599 1.897,1.18499 0.967,0.666 1.87,1.42 2.695,2.255 1.316,1.312 2.195,2.424 3.244,4.104 1.064,1.68999 1.853,3.46099 2.597,5.28399 0,0.017 0.262,0.69 0.756,1.94 1.185,3.00199 2.096,4.78799 3.1,6.07799 0.32,0.413 1.15,1.266 1.557,1.603 1.52,1.258 3.1,1.908 5.071,2.087 0.504,0.045 1.672,0.037 2.281,-0.016 a 22.526,22.525973 0 0 0 3.915,-0.736 c 1.997,-0.575 4.655,-1.628 5.545,-2.197 0.364,-0.232 0.619,-0.327 0.619,-0.231 0,0.06 -0.115,0.234 -0.324,0.492 -0.272,0.335 -1.512,1.565 -2.083,2.065 -1.861,1.63199 -3.776,2.77799 -5.703,3.41399 -1.748,0.636 -3.887,0.865 -5.25,0.885 -3.716,0.202 -7.595,-0.985 -10.296,-2.73 -0.617,-0.4 -1.207,-0.84099 -1.766,-1.31999 -2.477,-2.254 -4.143,-4.923 -5.75,-7.65799 -2.226,-3.896 -5.834,-7.541 -9.25,-9.45999 -1,-0.55 -2.873,-1.356 -6.656,-2.86 -1.685,-0.672 -2.224,-0.875 -2.29,-0.862 -0.03,0.005 -0.096,0.114 -0.159,0.26 -0.44,1.013 -0.875,1.866 -1.356,2.87 l -0.187,0.401 0.08,0.395 0.458,2.25499 c 1.4,6.877 1.864,9.34499 2.326,12.32999 0.622,3.67799 0.875,7.97699 0.873,10.57799 0.017,2.67599 -0.071,4.44199 -0.199,6.93799 -0.177,3.54299 -0.632,9.23399 -1.263,15.81298 a 2343.44,2343.4372 0 0 1 -1.252,12.59398 c -1.24,12.10599 -1.873,18.82098 -2.25,23.84497 -0.05,0.687 -0.072,1.48 -0.046,1.758 0.041,0.435 0.133,0.59 0.437,0.743 0.884,0.442 5.365,3.434 8.16,5.45 l 0.61,0.43899 c 0.238,0.17 0.792,0.577 1.23,0.904 2.14,1.592 3.36,2.429 3.949,2.708 1.13,0.537 3.6,0.512 5.316,-0.052 1.923,-0.634 4.527,-2.404 7.032,-4.78099 3.37,-3.2 7.604,-8.59799 8.246,-10.51599 0.166,-0.494 0.177,-0.955 0.143,-5.91999 -0.016,-2.35 0.01,-2.776 0.298,-4.828 a 88.8,88.799893 0 0 0 0.547,-4.79899 c 0.122,-1.367 0.19,-1.888 0.327,-2.467 0.334,-1.625 1.387,-3.133 2.173,-4.35999 1.956,-3.043 3.128,-5.223 4.116,-7.65499 0.582,-1.436 1.385,-3.862 1.56,-4.714 0.073,-0.358 0.08,-0.442 0.064,-0.88 -0.013,-0.351 -0.051,-0.7 -0.113,-1.046 -0.153,-0.898 -0.197,-1.406 -0.156,-1.79699 0.073,-0.682 0.258,-1.177 0.568,-1.518 0.14,-0.156 0.314,-0.28 0.722,-0.518 0.794,-1.003 1.778,-1.707 2.474,-2.607 1.116,-1.456 2.26,-2.225 3.766,-2.529 0.279,-0.056 0.566,-0.087 0.999,-0.106 0.719,-0.033 1.896,0.008 2.172,0.076 l 0.64,0.152 c 0.81,0.195 1.57,0.53 2.297,0.861 0.01,0.015 0.264,0.151 0.566,0.302 l 0.548,0.276 c -0.432,0.045 -0.876,0.037 -1.243,0.043 -1.96,0.01 -2.893,0.213 -3.837,0.838 -0.71,0.47 -1.525,1.472 -2.127,2.613 -0.427,0.81 -0.598,1.524 -0.397,1.664 0.035,0.024 0.106,0.1 0.159,0.165 0.088,0.111 0.093,0.13 0.063,0.242 a 0.386,0.38599954 0 0 1 -0.092,0.17 c -0.037,0.03 -0.08,0.14699 -0.12,0.32999 -0.21,0.95 -0.6,1.91 -1.37,3.373 -0.592,1.122 -1.293,3.209 -1.343,3.992 -0.017,0.263 -0.016,0.274 0.048,0.274 0.126,0 0.543,-0.572 0.99,-1.36 0.254,-0.444 0.57,-1.1 0.795,-1.64 0.222,-0.613 0.573,-1.228 0.877,-1.72 0.65,-0.74 1.4,-1.275 2.139,-1.906 0.025,0 0.078,-0.043 0.119,-0.095 0.068,-0.087 0.105,-0.1 0.43,-0.16 0.402,-0.072 0.44,-0.087 0.816,-0.344 0.296,-0.202 0.58,-0.437 1.106,-0.91299 0.47,-0.426 0.483,-0.438 0.625,-0.559 0.199,-0.17 0.76,-0.562 1.014,-0.71 0.914,-0.48 1.763,-0.68 2.67,-0.849 0.28,-0.093 1.634,-0.163 2.721,-0.14 1.021,-0.049 2.028,0.211 2.941,0.473 1.762,0.72 2.947,1.677 4.284,3.04699 0.133,0.197 0.152,0.273 0.086,0.346 -0.065,0.07 -0.09,0.074 -0.144,0.02 a 1.081,1.0809987 0 0 0 -0.245,-0.114 4.685,4.6849944 0 0 1 -0.42,-0.182 c -0.497,-0.249 -1.161,-0.453 -1.817,-0.557 -0.425,-0.068 -1.493,-0.093 -2.012,-0.047 -1.825,0.161 -3.535,0.834 -5.15,2.027 -0.757,0.558 -1.487,1.279 -1.698,1.674 -0.078,0.147 -0.093,0.204 -0.077,0.297 0.045,0.255 0.052,0.368 0.027,0.436 -0.015,0.04 -0.316,0.363 -0.668,0.719 -0.67,0.676 -0.935,1.015 -1.001,1.276 -0.383,0.817 -1.07,1.49999 -1.626,2.11899 -1.158,1.208 -2.53,3.329 -2.23,3.444 0.107,0.04 0.77,-0.49 2.048,-1.643 0.335,-0.303 0.722,-0.645 0.86,-0.762 0.787,-0.817 1.634,-1.209 2.53,-1.644 0.777,-0.32199 1.345,-0.64699 1.64,-0.93699 0.192,-0.191 0.421,-0.338 0.561,-0.362 a 0.58,0.5799993 0 0 1 0.302,0.049 c 0.28,0.103 0.483,0.154 0.612,0.154 0.186,0 0.688,-0.107 1.213,-0.26 0.83,-0.24 1.288,-0.322 2.311,-0.411 1.51,-0.17 3.028,0.325 4.235,0.84 1.1,0.565 1.958,1.22699 2.53,1.94999 0.425,0.539 0.927,1.53 0.983,1.94 0.017,0.129 0.012,0.112 0.016,0.259 -0.423,-0.28 -0.645,-0.393 -0.872,-0.544 -2.5,-1.709 -4.275,-1.84 -6.524,-0.837 -0.82,0.365 -1.523,0.865 -1.523,1.083 0,0.054 0.02,0.137 0.046,0.185 0.044,0.084 0.04,0.092 -0.062,0.193 -0.277,0.266 -0.607,0.484 -0.89,0.707 -0.505,0.385 -0.97,0.82 -1.387,1.3 -0.19,0.23 -0.545,0.719 -0.608,0.835 -0.043,0.08 -0.308,0.344 -0.487,0.484 -0.227,0.178 -0.702,0.407 -1.252,0.604 -1.312,0.469 -2.237,1.08999 -2.637,1.76799 -0.136,0.232 -0.397,1.152 -0.593,2.09 -0.13,0.624 -0.312,1.372 -0.362,1.486 -0.359,1.31 -0.964,2.649 -1.508,3.796 -0.162,0.33599 -0.42,0.87699 -0.571,1.20399 l -0.277,0.593 -0.015,5.235 c -0.016,5.20699 -0.03,5.87499 -0.127,6.22699 -0.025,0.09 -0.054,0.297 -0.065,0.46 -0.141,2.115 -0.606,5.28999 -0.94,6.42299 a 12.75,12.749985 0 0 1 -1.122,3.027 c -0.677,1.174 -2.125,2.71699 -3.705,3.94599 -1.217,0.946 -3.08,2.154 -4.435,2.875 -3.945,2.225 -8.412,3.69999 -12.44,4.80899 -0.307,0.084 -1.448,0.364 -2.171,0.531 -1.967,0.457 -2.922,0.748 -2.922,0.89 0,0.082 0.918,0.364 2.031,0.622 1.247,0.29 3.49,0.702 4.86,0.892 3.383,0.47 6.695,0.717 11.655,0.867 1.613,0.05 7.31,0.05 9.22,0 3.11,-0.079 5.31,-0.152 8.686,-0.287 4.07,-0.163 6.052,-0.26 8.47,-0.422 4.329,-0.5 8.619,-0.038 12.808,-1.08 0.32,-0.166 0.673,-0.458 1.256,-1.042 1.18,-1.177 1.763,-2.018 2.316,-3.32999 1.164,-2.762 1.936,-6.66 2.244,-11.32999 0.095,-1.444 0.113,-2.006 0.13,-3.983 0.036,-3.91999 -0.147,-7.08699 -0.695,-12.07898 -1.098,-10.00399 -3.516,-22.80097 -5.644,-29.85997 -2.807,-9.31898 -7.357,-19.74697 -14.393,-32.98596 -3.546,-6.67299 -8.053,-14.61298 -13.391,-23.59497 -3.397,-5.71499 -5.2,-8.622986 -6.423,-10.359984 -0.68,-0.965999 -1.02,-1.394999 -2.242,-2.830997 a 12.994,12.993984 0 0 1 -1.769,-2.377997 c -0.13,-0.297 -0.134,-0.317 -0.135,-0.636999 0,-0.323 0,-0.336 0.122,-0.573 0.068,-0.132999 0.234,-0.377999 0.37,-0.543999 0.135,-0.167 0.282,-0.348 0.325,-0.403999 l 0.08,-0.1 -0.108,-0.134 c -0.1,-0.127 -0.765,-1.002999 -1.38,-1.821998 -1.047,-1.385998 -1.886,-2.720997 -2.69,-4.108995 -0.874,-1.575998 -1.625,-3.242996 -2.138,-4.827994 -0.619,-1.815998 -0.818,-3.625996 -0.788,-5.390994 0.323,-2.740996 1.197,-4.824994 2.664,-6.929991 0.074,-0.124 0.942,-1.010999 1.13,-1.155999 1.87,-1.407998 3.541,-1.586998 5.941,-1.429998 1.534,0.185999 3.262,0.833999 4.219,1.286998 -0.705,0.118 -1.446,0.231 -2.15,0.367 -2.62,0.659999 -4.063,2.276997 -4.334,4.858994 -0.047,0.451999 -0.02,1.601998 0.048,2.112997 0.07,0.522 0.247,1.383999 0.392,1.920998 0.97,3.589996 2.99,6.444992 6.329,8.943989 0.838,0.626999 1.279,0.901999 1.52,0.946999 0.16,0.03 0.366,-0.08 0.675,-0.363999 0.069,-0.063 0.355,-0.15 0.704,-0.215 0.298,-0.055 0.81,0.07 1.017,0.246999 0.598,0.408 1.094,0.817 1.661,1.266999 7.734,4.406995 9.59,4.929994 17.735,8.66899 12.833,5.764993 24.68,12.12898 36.015,19.09398 a 168.787,168.7868 0 0 1 15.316,10.84098 c 6.047,4.96 12.151,10.46399 16.997,15.61998 10.983,11.75899 20.492,25.66197 27.689,39.39196 5.73,11.31998 10.274,22.60997 13.403,33.86196 1.878,6.82699 3.41,14.71198 4.294,21.23397 1.443,10.85899 1.746,21.60197 1.283,32.61096 -0.413,6.18199 -0.827,11.21199 -1.733,17.21998 -1.681,11.37999 -4.207,22.22997 -7.766,33.56196 -1.135,3.653 -2.798,8.45299 -4.4,12.70499 -2.06,5.28399 -4.109,10.33698 -6.327,15.24998 a 283.713,283.71266 0 0 1 -7.86,15.98598 311.197,311.19663 0 0 1 -16.83,27.96396 c -1.376,1.985 -2.088,2.892 -2.838,3.614 -0.93,0.894 -1.608,1.158 -2.604,1.011 a 5.6,5.5999933 0 0 0 -0.672,-0.057 c -0.244,0 -0.303,0.012 -0.443,0.086 -0.228,0.118 -0.636,0.453 -1.166,0.954 -0.677,0.64 -0.974,0.903 -1.406,1.24 -1.116,0.91899 -2.416,1.50599 -3.743,2.01499 -2.13,0.253 -4.862,0.478 -6.866,-0.468 -1.45,-0.696 -2.41,-1.61999 -3.066,-2.95299 -0.254,-0.515 -0.437,-1.023 -0.656,-1.812 a 58.343,58.34293 0 0 0 -0.187,-0.667 c -0.008,-0.023 0,-0.037 0.016,-0.03 0.016,0.005 0.338,0.288 0.715,0.628 0.81,0.73 1.08,0.947 1.584,1.28 a 7.92,7.9199905 0 0 0 2.988,1.181 c 0.486,0.086 1.545,0.118 2.068,0.063 1.218,-0.13 2.553,-0.579 3.397,-1.142 1.186,-0.79 2.15,-2.019 2.563,-3.263 0.224,-0.675 0.245,-1.239 0.065,-1.778 -0.167,-0.5 -0.205,-0.786 -0.204,-1.53799 0,-0.717 0.05,-1.08 0.199,-1.472 0.124,-0.33 0.432,-0.716 1.46,-1.828 1.238,-1.338 2.062,-2.4 3.37,-4.34 3.05,-4.52599 6.296,-10.51998 8.562,-15.81298 4.197,-9.80498 5.4,-17.89297 3.533,-23.76697 -0.574,-1.81 -1.456,-3.29999 -2.433,-4.11299 -0.47,-0.392 -0.89,-0.62 -1.428,-0.78 -0.165,-0.05 -0.297,-0.06 -0.703,-0.058 -0.459,0 -0.53,0.01 -0.862,0.1 -0.656,0.176 -1.424,0.499 -2.232,0.937 -0.609,0.33 -0.948,0.536 -1.813,1.101 -0.834,0.546 -1.147,0.735 -1.655,0.99899 -0.916,0.478 -1.946,0.836 -2.845,0.99 -0.446,0.077 -1.49,0.078 -1.867,0.002 -0.728,-0.147 -1.506,-0.566 -1.804,-0.83 0.85,0.012 1.433,-0.013 2.359,-0.203 1.41,-0.32299 2.328,-1.04599 3.613,-2.84999 1.607,-2.252 2.47,-4.025 3.622,-7.43599 1.751,-5.19 2.884,-10.69799 3.231,-15.71998 0.107,-1.545 0.125,-2.063 0.125,-3.703 10e-4,-2.906 -0.183,-5.02199 -0.642,-7.37499 -0.63,-3.23 -1.806,-6.05999 -3.132,-7.53199 -1.207,-1.34 -2.58,-1.626 -4.12,-0.856 -0.765,0.383 -1.515,0.973 -2.482,1.953 -0.84,0.85 -1.224,1.276 -3.14,3.46599 -1.076,1.23 -1.6,1.797 -2.337,2.532 -1.373,1.366 -2.45,2.204 -3.29,2.562 -0.655,0.28 -1.743,0.425 -2.57,0.346 -0.625,-0.06 -0.888,-0.13 -1.357,-0.369 a 6.007,6.0069928 0 0 1 -0.486,-0.27 c 0.869,-0.164 1.65,-0.446 2.324,-0.628 0.816,-0.294 1.72,-1.169 2.449,-2.368 1.109,-1.827 2.03,-4.78699 2.394,-7.69599 0.226,-1.802 0.313,-3.545 0.314,-6.26599 0,-3.88 -0.22,-6.54699 -0.75,-9.13999 -0.63,-3.068 -1.816,-5.91299 -3.191,-7.64599 -1.982,-2.497 -4.64,-2.984 -7.825,-1.433 -1.63,0.794 -3.27,2.028 -4.567,3.44 -2.253,2.45199 -4.554,5.80399 -9.206,13.41598 -1.715,2.806 -3.077,4.98499 -4.008,6.40999 l -0.447,0.688 c -0.255,0.392 -1.622,2.44 -1.87,2.799 l -0.37,0.54 a 84.973,84.972898 0 0 1 -3.564,4.81699 c -0.636,0.788 -0.67,0.829 -1.233,1.519 -0.3,0.368 -0.612,0.753 -0.692,0.856 l -0.146,0.188 0.028,0.97 c 0.027,2.78599 0.277,6.13799 0.209,8.68499 a 20.492,20.491975 0 0 1 -0.38,-0.718 l -0.578,-1.125 a 956.37,956.36885 0 0 1 -1.227,-2.39 c -2.273,-4.44699 -2.565,-5.00599 -2.688,-5.13799 -0.147,-0.158 -2.482,-1.312 -4.195,-2.072 -4.4,-1.953 -10.923,-4.46999 -14.887,-5.74199 -12.718,-4.082 -23.302,-5.701 -33.705,-5.157 -7.117,0.372 -11.3,1.174 -14.883,2.854 -1.606,0.753 -2.803,1.599 -4.208,2.973 -1.372,1.34399 -2.232,2.47499 -2.863,3.76599 -1.62,3.311 -2.37,7.83199 -1.983,11.93799 0.1,1.066 0.284,2.17199 0.733,4.42199 0.292,1.46 0.413,2.028 0.985,4.623 0.846,3.83999 1.193,5.95499 1.332,8.12799 0.07,1.114 0.038,3.47499 -0.087,6.07599 l -0.02,0.436 c 0.625,-0.537 1.138,-1.013 1.632,-1.461 0.702,-0.639 1.406,-1.276 2.111,-1.911 6.862,-6.14699 13.658,-11.35298 19.563,-14.98598 4.006,-2.368 7.93,-4.63999 12.406,-5.62499 1.272,-0.316 2.475,-0.324 3.797,-0.285 1.17,0.163 2.596,0.598 3.503,1.07 1.574,0.734 2.849,2.00599 3.815,3.40299 0.606,0.887 1.287,2.203 1.575,3.046 0.27,0.559 0.241,1.193 0.276,1.799 -0.116,1.43 -0.68,2.88999 -1.068,3.96899 -1.06,2.84 -1.424,5.129 -2.137,7.96899 -0.502,1.847 -1.219,3.803 -1.825,5.359 a 62.282,62.281925 0 0 1 -1,2.35899 57.714,57.71393 0 0 1 -3.75,7.12599 c -1.052,1.713 -1.387,2.316 -1.345,2.425 0.017,0.042 0.054,0.047 0.245,0.03 1.268,-0.12 4.07,-0.729 5.407,-1.177 2.083,-0.697 6.061,-2.56499 8.029,-3.76899 1.836,-1.123 4.31,-3.413 5.58,-5.165 0.564,-0.778 1.109,-1.82599 1.46,-2.80699 0.336,-0.944 0.577,-1.906 1.096,-4.381 0.613,-2.92399 0.933,-3.80999 1.612,-4.45399 0.369,-0.35 0.82,-0.554 1.59,-0.718 1.061,-0.227 1.162,-0.272 1.627,-0.734 0.221,-0.22 0.502,-0.557 0.847,-1.016 0.621,-0.83 1.018,-1.32 1.35,-1.665 0.201,-0.21 0.298,-0.284 0.514,-0.39 l 0.266,-0.133 h 0.393 c 0.523,0 0.62,0.04 1.31,0.532 0.242,0.173 0.362,0.183 0.575,0.048 0.08,-0.05 0.453,-0.392 0.83,-0.758 0.983,-0.958 1.554,-1.38799 2.396,-1.80499 a 6.58,6.5799921 0 0 1 2.688,-0.68 c 0.382,-0.015 1.24,0.072 1.777,0.18 2.05,0.415 3.734,1.62199 4.565,3.27599 0.253,0.48 0.381,0.993 0.537,1.526 -0.008,0.005 -0.234,-0.195 -0.507,-0.446 -0.641,-0.588 -1.033,-0.883 -1.428,-1.074 -0.397,-0.193 -0.718,-0.275 -1.236,-0.316 -0.843,-0.068 -1.53,0.085 -2.417,0.538 -1.103,0.562 -2.204,1.487 -3.397,2.854 -0.643,0.737 -0.92,1.16 -1.004,1.532 -0.02,0.086 -0.048,0.402 -0.063,0.703 -0.028,0.549 -0.094,1.02299 -0.147,1.05899 -0.016,0.01 -0.077,0.11 -0.136,0.222 -0.226,0.43 -0.702,0.812 -1.34,1.076 -0.533,0.22 -0.583,0.324 -0.627,1.3 -0.028,0.65 -0.093,1.157 -0.168,1.327 -0.046,0.113 -0.09,0.228 -0.13,0.344 -0.329,0.939 -1.097,2.016 -2.138,2.998 -0.635,0.599 -2.356,1.90899 -5.173,3.93799 -2.058,1.483 -3.404,2.48 -3.812,2.82 l -0.218,0.182 0.097,0.01 c 0.248,0.024 1.926,-0.625 3.636,-1.407 2.757,-1.26 5.265,-2.742 6.907,-4.084 0.891,-0.72799 1.34,-1.31099 2.015,-2.61299 0.675,-1.304 1.092,-1.951 1.68,-2.612 0.652,-0.732 1.407,-1.22 2.29,-1.478 0.509,-0.15 0.852,-0.19 1.624,-0.188 0.744,0 1.109,0.035 2,0.188 1.397,0.238 1.574,0.245 2.07,0.08 0.157,-0.053 0.643,-0.28 1.08,-0.504 1.35,-0.694 2.043,-0.887 2.632,-0.734 0.527,0.136 0.837,0.508 1.14,1.364 0.24,0.684 0.357,0.74 1.812,0.854 1.79,0.14 3.16,0.465 4.3,1.019 0.735,0.357 1.22,0.698 1.765,1.243 0.784,0.784 1.3,1.726 1.563,2.84599 0.05,0.215 0.11,0.468 0.135,0.563 0.05,0.195 0.108,0.83 0.134,1.5 0.03,0.785 -0.07,1.672 -0.25,2.203 -0.085,0.245 -0.36,0.892 -0.398,0.933 -0.129,-0.296 -0.175,-0.677 -0.25,-1.027 -0.393,-1.86 -0.865,-2.922 -1.636,-3.69 a 4.155,4.154995 0 0 0 -1.164,-0.82199 c -0.397,-0.198 -0.669,-0.29 -1.184,-0.4 -0.39,-0.082 -0.44,-0.086 -1.296,-0.085 -0.824,0 -0.925,0.007 -1.344,0.083 -0.48,0.087 -1.11,0.264 -1.324,0.373 -0.387,0.196 -0.52,0.36499 -0.677,0.85399 -0.135,0.42 -0.28,0.69 -0.476,0.882 -0.385,0.376 -0.914,0.508 -2.034,0.509 -0.509,0 -0.68,0.03 -0.797,0.135 -0.116,0.107 -0.149,0.195 -0.255,0.693 -0.258,1.218 -0.792,2.347 -1.388,2.94 -0.266,0.263 -0.406,0.335 -0.81,0.42 -0.17,0.035 -0.344,0.09 -0.39,0.122 -0.072,0.052 -0.163,0.061 -0.708,0.076 -0.35,0.01 -0.699,0.026 -1.047,0.05 -0.232,0.017 -1.09,0.06 -1.906,0.094 -2.511,0.107 -2.221,0.08 -2.563,0.236 -0.738,0.335 -3.14,1.435 -4.672,2.13999 -4.145,1.908 -5.1,2.352 -6.764,3.14 -0.812,0.384 -1.063,0.516 -1.063,0.556 0,0.052 1.21,0.004 2.093,-0.084 3.023,-0.3 4.333,-0.628 6.371,-1.594 1.073,-0.508 1.7,-0.756 2.332,-0.922 0.207,-0.055 0.403,-0.11 0.438,-0.126 0.108,-0.046 0.769,-0.095 1.269,-0.095 0.566,10e-4 0.905,0.042 1.793,0.22 1.118,0.221 1.46,0.21 2.25,-0.085 0.81,-0.3 1.43,-0.426 2.14,-0.43 0.573,-0.002 0.73,0.02 0.897,0.127 0.165,0.108 0.234,0.215 0.434,0.687 0.2,0.473 0.287,0.575 0.49,0.575 0.074,0 0.303,-0.035 0.509,-0.077 0.248,-0.048 0.498,-0.086 0.75,-0.113 0.205,-0.02 0.39,-0.05 0.411,-0.067 0.04,-0.03 2.796,-0.044 2.846,-0.014 0.014,0.01 0.16,0.04 0.322,0.065 0.404,0.066 0.686,0.148 0.998,0.293 1.158,0.537 2.253,1.503 3.053,2.694 0.595,0.886 0.844,1.53 1,2.578 0.209,1.07299 -0.027,2.41799 -0.285,3.04599 -0.294,-0.592 -0.486,-1.299 -0.682,-1.812 -0.42,-0.806 -1.245,-1.59799 -1.99,-1.90799 -0.557,-0.232 -1.345,-0.33 -2.412,-0.3 -1.727,0.05 -3.5,0.404 -4.546,0.911 -0.47,0.228 -0.563,0.316 -0.76,0.71399 -0.134,0.272 -0.196,0.36 -0.362,0.512 a 2.11,2.1099975 0 0 1 -1.034,0.504 c -0.431,0.067 -0.633,0.07 -1.178,0.023 -0.846,-0.076 -0.938,-0.04 -1.198,0.457 a 2.14,2.1399974 0 0 1 -0.925,0.923 3.91,3.9099953 0 0 1 -1.215,0.339 c -0.568,0.074 -1.75,0.06 -2.719,-0.03 -0.444,-0.041 -1.962,-0.3 -3.312,-0.566 -2.123,-0.417 -3.182,-0.544 -4.188,-0.505 -1.682,0.065 -10.511,1.04 -12.919,1.427 -3.475,0.558 -8.79,2.406 -14.174,4.92999 a 89.823,89.822892 0 0 0 -9.29,5.02 c -2.58,1.59 -3.484,2.043 -4.533,2.275 -0.416,0.093 -1.066,0.1 -1.458,0.016 -1.625,-0.347 -2.85,-1.433 -3.318,-2.944 -0.053,-0.171 -0.11,-0.317 -0.123,-0.322 -0.016,-0.006 -0.028,-0.062 -0.028,-0.125 0,-0.063 -0.021,-0.283 -0.047,-0.49 -0.104,-0.835 -0.03,-1.74 0.223,-2.746 0.224,-0.88999 1.012,-3.08199 2.215,-6.15999 2.35,-6.01799 5.16,-12.65198 7.077,-16.71998 0.693,-1.469 0.995,-2.157 0.962,-2.191 -0.02,-0.02 -0.784,0.473 -2.665,1.721 -6.442,4.277 -10.735,6.86999 -15.629,9.43499 -1.485,0.78 -4.072,2.025 -5.23,2.52 l -0.578,0.248 c -0.206,0.088 -0.867,0.36 -1.469,0.6 -1.605,0.646 -2.44,1.064 -2.513,1.258 -0.096,0.251 -0.408,1.85199 -0.94,4.81599 -0.474,2.653 -0.961,4.97999 -1.691,8.09399 -0.378,1.592 -0.771,3.18 -1.18,4.76599 l -0.202,0.765 c -1.071,4.09 -2.322,8.12999 -3.75,12.10999 -3.144,8.78299 -7.164,17.18998 -11.64,24.34497 a 95.901,95.900884 0 0 1 -4.772,6.96899 c -0.574,0.762 -0.76,1.007 -1.628,2.146 a 7.01,7.0099916 0 0 0 -0.385,0.531 c 0,0.04 0.839,0.543 1.43,0.861 1.895,1.02 7.252,3.57999 10.744,5.13499 4.73,2.108 9.86,3.95 14.683,5.27699 4.85,1.332 9.805,2.26 14.22,2.657 3.506,0.317 11.866,0.238 18.056,-0.17 1.672,-0.11 2.94,-0.24 4.94,-0.5 9.327,-1.22 16.493,-3.38299 21.879,-6.60299 a 30.855,30.854963 0 0 0 3.155,-2.188 24.852,24.85197 0 0 0 3.677,-3.66599 c 0.431,-0.537 0.945,-1.25 1.24,-1.72 1.667,-2.655 2.937,-6.50599 3.3,-10.01099 0.304,-2.93 -0.098,-5.56599 -1.2,-7.85999 -1.686,-3.514 -4.959,-6.17299 -9.751,-7.92199 -3.262,-1.19 -7.458,-1.967 -11.667,-2.16 -1.037,-0.047 -3.782,-0.02 -4.677,0.047 a 33.26,33.25996 0 0 0 -5.921,0.942 c -2.914,0.72 -5.575,1.69 -8.11,2.956 -2.945,1.471 -5.188,3.04499 -7.064,4.95499 -2.062,2.1 -3.012,3.945 -3.33,6.46399 -0.074,0.59 -0.074,1.803 0,2.376 0.253,1.945 0.954,3.502 2.055,4.563 1.243,1.19699 2.867,1.98799 4.902,2.38599 1.904,0.374 4.641,0.41 7.027,0.096 4.143,-0.546 7.651,-2.27299 10.798,-5.31499 0.78,-0.752 1.393,-1.434 2.878,-3.192 0.154,-0.184 0.285,-0.315 0.29,-0.292 0.02,0.09 -0.189,1.462 -0.278,1.828 -0.75,3.074 -3.717,6.91299 -7.556,9.78199 -6.428,4.52799 -15.098,5.53599 -22.065,3.73199 -1.483,-0.38799 -3.43,-1.24199 -4.722,-2.06999 -1.482,-0.953 -2.93,-2.312 -4.039,-3.793 -1.174,-1.569 -2.023,-3.29799 -2.413,-4.91299 -0.32,-1.331 -0.478,-2.798 -0.505,-4.72 -0.035,-2.57699 0.154,-4.14299 0.727,-6.01399 1.21,-3.94999 3.752,-8.08899 7.237,-11.77999 4.425,-4.68999 10.045,-8.48299 16.105,-10.86898 3.313,-1.305 6.893,-2.26 10.984,-2.93 2.004,-0.328 3.403,-0.45 6.656,-0.582 1.197,-0.048 6.296,-0.027 6.35,0.027 0.023,0.024 0.129,0.039 0.274,0.039 0.926,0 4.193,0.26 5.314,0.424 6.301,0.919 12.199,2.68 16.88,5.042 4.458,2.24999 7.588,4.81099 10.036,8.21199 2.324,3.22999 4.07,7.25699 4.973,11.46898 0.757,3.534 0.917,6.98199 0.483,10.41699 -0.91,7.20599 -3.94,13.94198 -8.856,19.68698 -0.852,0.99599 -1.298,1.47399 -2.42,2.59599 -1.42,1.42 -2.42,2.318 -3.91,3.514 -14.044,9.57399 -29.689,15.34498 -45.42,15.89698 -1.222,0.04 -14.07,1.388 -19,1.119 -3.75,-0.012 -16.366,-1.04 -19.26,-1.549 z m -87.13,-27.57797 c 2.742,-0.1 4.562,-0.29 7.579,-0.799 2.198,-0.37 4.355,-0.894 7.14,-1.73499 2.232,-0.675 3.843,-1.28 3.843,-1.442 0,-0.293 -7.064,-5.857 -10.843,-8.53999 -5.353,-3.8 -12.227,-6.56599 -21.078,-8.48299 -4.36,-0.944 -8.412,-1.53 -12.265,-1.772 -1.096,-0.07 -4.368,-0.08 -5.234,-0.016 -2.811,0.204 -4.812,0.643 -6.24,1.37 -1.925,1.09 -2.429,3.30999 -1.998,5.15199 0.33,1.345 1.156,2.755 2.487,4.25 0.727,0.817 1.869,1.89599 2.875,2.71899 4.6,3.76 11.447,6.894 18.079,8.27699 2.68,0.56 6.135,0.892 10.687,1.03 0.775,0.024 4.226,0.016 4.97,-0.01 z" />
</svg>
